<?xml version="1.0" encoding="UTF-8" standalone="no"?>
<!-- Generator: Adobe Illustrator 24.0.2, SVG Export Plug-In . SVG Version: 6.00 Build 0)  -->

<svg
   xmlns:dc="http://purl.org/dc/elements/1.1/"
   xmlns:cc="http://creativecommons.org/ns#"
   xmlns:rdf="http://www.w3.org/1999/02/22-rdf-syntax-ns#"
   xmlns:svg="http://www.w3.org/2000/svg"
   xmlns="http://www.w3.org/2000/svg"
   xmlns:sodipodi="http://sodipodi.sourceforge.net/DTD/sodipodi-0.dtd"
   xmlns:inkscape="http://www.inkscape.org/namespaces/inkscape"
   version="1.1"
   id="Ebene_1"
   x="0px"
   y="0px"
   viewBox="0 0 260.99999 35.38"
   xml:space="preserve"
   sodipodi:docname="rabe_logo_v3_gold.svg"
   width="261"
   height="35.380001"
   inkscape:version="0.92.4 (5da689c313, 2019-01-14)"><metadata
   id="metadata88"><rdf:RDF><cc:Work
       rdf:about=""><dc:format>image/svg+xml</dc:format><dc:type
         rdf:resource="http://purl.org/dc/dcmitype/StillImage" /><dc:title></dc:title></cc:Work></rdf:RDF></metadata><defs
   id="defs86" /><sodipodi:namedview
   pagecolor="#ffffff"
   bordercolor="#666666"
   borderopacity="1"
   objecttolerance="10"
   gridtolerance="10"
   guidetolerance="10"
   inkscape:pageopacity="0"
   inkscape:pageshadow="2"
   inkscape:window-width="2560"
   inkscape:window-height="1371"
   id="namedview84"
   showgrid="false"
   fit-margin-top="0"
   fit-margin-left="0"
   fit-margin-right="0"
   fit-margin-bottom="0"
   inkscape:zoom="1.5857387"
   inkscape:cx="130.39013"
   inkscape:cy="-108.44526"
   inkscape:window-x="0"
   inkscape:window-y="27"
   inkscape:window-maximized="1"
   inkscape:current-layer="Ebene_1" />
<style
   type="text/css"
   id="style2">
	.st0{fill:#4C267F;}
	.st1{fill:#43444A;}
	.st2{fill:url(#SVGID_1_);}
</style>
<g
   id="g26"
   transform="translate(-166.67,-403.45)">
	<path
   class="st0"
   d="m 283.68,417.7 c 0,0.75 -0.1,1.39 -0.29,1.94 -0.2,0.55 -0.47,1.02 -0.82,1.42 -0.35,0.4 -0.77,0.72 -1.26,0.96 -0.49,0.25 -1.03,0.44 -1.62,0.59 -0.59,0.14 -1.22,0.25 -1.89,0.3 -0.67,0.05 -1.36,0.08 -2.08,0.08 H 261.8 V 403.8 h 13.67 c 0.55,0 1.1,0.02 1.66,0.07 0.55,0.05 1.08,0.13 1.59,0.26 0.5,0.13 0.97,0.3 1.4,0.52 0.43,0.22 0.81,0.52 1.13,0.88 0.32,0.36 0.57,0.8 0.75,1.31 0.18,0.51 0.27,1.12 0.27,1.82 0,1.25 -0.31,2.24 -0.92,2.97 -0.61,0.73 -1.58,1.22 -2.91,1.46 0.93,0.06 1.73,0.21 2.4,0.43 0.67,0.22 1.21,0.52 1.63,0.89 0.42,0.37 0.73,0.84 0.92,1.38 0.19,0.54 0.29,1.19 0.29,1.91 z m -6.46,-8.21 c 0,-0.24 -0.04,-0.47 -0.11,-0.69 -0.07,-0.22 -0.21,-0.41 -0.4,-0.58 -0.2,-0.17 -0.46,-0.3 -0.8,-0.41 -0.33,-0.1 -0.76,-0.15 -1.28,-0.15 h -7.64 v 3.6 h 7.64 c 0.52,0 0.95,-0.05 1.28,-0.14 0.34,-0.09 0.6,-0.22 0.8,-0.38 0.2,-0.16 0.33,-0.35 0.4,-0.57 0.07,-0.22 0.11,-0.44 0.11,-0.68 z m 1.2,7.61 c 0,-0.44 -0.07,-0.79 -0.22,-1.05 -0.15,-0.26 -0.38,-0.47 -0.7,-0.61 -0.32,-0.14 -0.73,-0.24 -1.23,-0.29 -0.5,-0.05 -1.1,-0.07 -1.8,-0.07 h -7.49 v 4.06 h 7.49 c 0.7,0 1.3,-0.02 1.8,-0.07 0.5,-0.05 0.91,-0.14 1.23,-0.29 0.32,-0.15 0.55,-0.36 0.7,-0.62 0.15,-0.26 0.22,-0.62 0.22,-1.06 z"
   id="path4"
   inkscape:connector-curvature="0"
   style="fill:#4c267f" />
	<path
   class="st0"
   d="m 288.4,423 v -19.19 h 19.43 v 4.09 h -14.11 v 3.17 h 13.38 v 4.09 h -13.38 v 3.74 h 14.3 v 4.1 z"
   id="path6"
   inkscape:connector-curvature="0"
   style="fill:#4c267f" />
	<path
   class="st0"
   d="m 328.75,406.64 c -0.36,-0.18 -0.78,-0.37 -1.26,-0.57 -0.48,-0.2 -1.02,-0.38 -1.63,-0.54 -0.61,-0.16 -1.3,-0.29 -2.06,-0.4 -0.76,-0.11 -1.61,-0.16 -2.54,-0.16 -1.13,0 -2.13,0.07 -3.01,0.2 -0.88,0.13 -1.63,0.33 -2.24,0.61 -0.61,0.28 -1.08,0.62 -1.4,1.04 -0.32,0.42 -0.48,0.92 -0.48,1.49 0,0.48 0.15,0.91 0.45,1.27 0.3,0.36 0.71,0.68 1.23,0.96 0.52,0.28 1.12,0.53 1.82,0.76 0.69,0.23 1.43,0.44 2.21,0.64 0.78,0.2 1.58,0.4 2.4,0.61 0.82,0.21 1.63,0.43 2.4,0.66 0.78,0.24 1.51,0.5 2.21,0.8 0.69,0.29 1.3,0.63 1.82,1.03 0.52,0.39 0.93,0.84 1.23,1.34 0.3,0.5 0.45,1.08 0.45,1.75 0,0.72 -0.14,1.34 -0.41,1.88 -0.27,0.54 -0.64,1 -1.1,1.38 -0.46,0.39 -1,0.71 -1.62,0.96 -0.62,0.26 -1.28,0.46 -1.98,0.61 -0.7,0.15 -1.43,0.25 -2.18,0.31 -0.75,0.06 -1.49,0.09 -2.21,0.09 -1.67,0 -3.18,-0.12 -4.53,-0.36 -1.35,-0.24 -2.65,-0.57 -3.88,-0.99 v -2.14 c 1.27,0.75 2.6,1.27 4.02,1.55 1.42,0.28 2.89,0.42 4.45,0.42 1.1,0 2.11,-0.07 3.04,-0.2 0.93,-0.13 1.74,-0.34 2.42,-0.62 0.68,-0.28 1.21,-0.65 1.58,-1.11 0.38,-0.46 0.57,-1.01 0.57,-1.68 0,-0.53 -0.15,-1 -0.45,-1.4 -0.3,-0.4 -0.71,-0.75 -1.23,-1.05 -0.52,-0.3 -1.12,-0.57 -1.82,-0.8 -0.69,-0.23 -1.43,-0.45 -2.2,-0.65 -0.77,-0.2 -1.57,-0.4 -2.4,-0.59 -0.82,-0.19 -1.62,-0.4 -2.4,-0.62 -0.77,-0.22 -1.51,-0.47 -2.2,-0.75 -0.69,-0.28 -1.3,-0.61 -1.82,-0.98 -0.52,-0.37 -0.93,-0.81 -1.23,-1.31 -0.3,-0.49 -0.45,-1.07 -0.45,-1.72 0,-0.64 0.12,-1.21 0.36,-1.71 0.24,-0.5 0.57,-0.93 1,-1.29 0.42,-0.36 0.92,-0.67 1.49,-0.91 0.57,-0.25 1.18,-0.44 1.82,-0.59 0.65,-0.14 1.32,-0.25 2.02,-0.31 0.7,-0.06 1.39,-0.1 2.07,-0.1 0.75,0 1.45,0.03 2.12,0.1 0.67,0.07 1.31,0.15 1.93,0.26 0.62,0.11 1.22,0.23 1.82,0.37 0.59,0.14 1.19,0.29 1.79,0.45 v 2.01 z"
   id="path8"
   inkscape:connector-curvature="0"
   style="fill:#4c267f" />
	<path
   class="st0"
   d="m 354.48,409.7 c 0,0.96 -0.16,1.81 -0.47,2.54 -0.31,0.73 -0.8,1.35 -1.47,1.86 -0.67,0.51 -1.53,0.88 -2.59,1.14 -1.06,0.26 -2.33,0.38 -3.82,0.38 h -8.62 V 423 h -1.75 v -19.19 h 10.36 c 1.49,0 2.76,0.13 3.82,0.38 1.06,0.25 1.92,0.63 2.59,1.12 0.67,0.49 1.16,1.11 1.47,1.84 0.31,0.73 0.48,1.59 0.48,2.55 z m -1.79,0 c 0,-0.91 -0.15,-1.65 -0.45,-2.21 -0.3,-0.56 -0.77,-0.99 -1.4,-1.29 -0.63,-0.3 -1.43,-0.5 -2.39,-0.61 -0.96,-0.1 -2.11,-0.15 -3.43,-0.15 h -7.51 v 8.55 h 7.51 c 0.51,0 1.06,0 1.64,0.01 0.58,0 1.16,-0.02 1.73,-0.08 0.57,-0.06 1.11,-0.17 1.63,-0.32 0.52,-0.15 0.97,-0.39 1.37,-0.71 0.4,-0.32 0.71,-0.73 0.95,-1.24 0.23,-0.52 0.35,-1.17 0.35,-1.95 z"
   id="path10"
   inkscape:connector-curvature="0"
   style="fill:#4c267f" />
	<path
   class="st0"
   d="m 382.21,413.41 c 0,1.72 -0.31,3.21 -0.94,4.46 -0.62,1.25 -1.48,2.29 -2.57,3.1 -1.09,0.82 -2.37,1.42 -3.85,1.81 -1.48,0.39 -3.08,0.59 -4.79,0.59 -1.72,0 -3.33,-0.2 -4.82,-0.59 -1.49,-0.39 -2.78,-0.99 -3.88,-1.81 -1.1,-0.81 -1.96,-1.85 -2.58,-3.1 -0.62,-1.25 -0.94,-2.74 -0.94,-4.46 0,-1.15 0.14,-2.19 0.43,-3.12 0.29,-0.93 0.69,-1.77 1.21,-2.51 0.52,-0.74 1.15,-1.38 1.89,-1.92 0.74,-0.54 1.56,-0.99 2.47,-1.35 0.91,-0.36 1.88,-0.62 2.92,-0.8 1.04,-0.17 2.14,-0.26 3.28,-0.26 1.71,0 3.31,0.2 4.79,0.59 1.48,0.39 2.76,0.99 3.85,1.81 1.09,0.81 1.94,1.85 2.57,3.1 0.63,1.25 0.96,2.74 0.96,4.46 z m -1.79,0 c 0,-1.36 -0.22,-2.56 -0.66,-3.6 -0.44,-1.04 -1.1,-1.92 -1.96,-2.63 -0.87,-0.71 -1.95,-1.25 -3.24,-1.62 -1.29,-0.37 -2.79,-0.55 -4.49,-0.55 -1.7,0 -3.21,0.19 -4.51,0.56 -1.3,0.37 -2.39,0.92 -3.26,1.63 -0.87,0.71 -1.54,1.59 -1.98,2.64 -0.44,1.05 -0.67,2.24 -0.67,3.58 0,1.36 0.22,2.56 0.67,3.6 0.45,1.04 1.11,1.92 1.98,2.63 0.88,0.71 1.96,1.25 3.26,1.62 1.3,0.37 2.8,0.55 4.51,0.55 1.71,0 3.2,-0.18 4.49,-0.55 1.29,-0.37 2.37,-0.91 3.24,-1.62 0.87,-0.71 1.52,-1.59 1.96,-2.63 0.44,-1.04 0.66,-2.25 0.66,-3.61 z"
   id="path12"
   inkscape:connector-curvature="0"
   style="fill:#4c267f" />
	<path
   class="st0"
   d="M 389.08,414.78 V 423 h -1.75 v -19.19 h 9.55 c 1.46,0 2.71,0.11 3.76,0.34 1.04,0.23 1.9,0.57 2.56,1.03 0.66,0.46 1.15,1.04 1.46,1.73 0.31,0.69 0.46,1.49 0.46,2.42 0,1.43 -0.38,2.58 -1.13,3.44 -0.75,0.86 -1.97,1.45 -3.65,1.77 l 6.55,8.46 h -2.19 l -6.19,-8.27 c -0.26,0.02 -0.53,0.03 -0.8,0.04 -0.27,0.01 -0.55,0.01 -0.84,0.01 z m 14.26,-5.46 c 0,-0.82 -0.14,-1.48 -0.43,-1.99 -0.29,-0.51 -0.76,-0.9 -1.41,-1.18 -0.65,-0.28 -1.51,-0.47 -2.57,-0.57 -1.06,-0.1 -2.36,-0.15 -3.89,-0.15 h -5.96 v 7.71 h 5.9 c 1.54,0 2.84,-0.04 3.9,-0.13 1.06,-0.09 1.92,-0.27 2.59,-0.54 0.67,-0.27 1.14,-0.66 1.43,-1.16 0.29,-0.5 0.44,-1.16 0.44,-1.99 z"
   id="path14"
   inkscape:connector-curvature="0"
   style="fill:#4c267f" />
	<path
   class="st0"
   d="M 418.94,405.4 V 423 h -1.73 v -17.6 h -8.73 v -1.59 h 19.19 v 1.59 z"
   id="path16"
   inkscape:connector-curvature="0"
   style="fill:#4c267f" />
	<g
   id="g20">
		<path
   class="st0"
   d="m 225.65,415.41 c 0.57,-0.2 1.11,-0.44 1.62,-0.74 0.51,-0.3 0.96,-0.66 1.35,-1.1 0.39,-0.43 0.69,-0.95 0.92,-1.56 0.23,-0.6 0.34,-1.31 0.34,-2.12 0,-0.92 -0.14,-1.76 -0.41,-2.51 -0.27,-0.75 -0.72,-1.39 -1.33,-1.92 -0.61,-0.53 -1.4,-0.94 -2.37,-1.23 -0.97,-0.29 -2.16,-0.43 -3.55,-0.43 h -12.99 v 4.01 h 5.18 7.1 c 0.6,0 1.11,0.04 1.52,0.11 0.4,0.07 0.73,0.19 0.97,0.36 0.24,0.16 0.41,0.38 0.51,0.64 0.1,0.26 0.15,0.58 0.15,0.95 0,0.37 -0.05,0.69 -0.15,0.95 -0.1,0.26 -0.27,0.47 -0.51,0.64 -0.24,0.16 -0.57,0.28 -0.97,0.36 -0.41,0.07 -0.91,0.11 -1.52,0.11 h -7.1 -5.18 V 423 h 5.18 v -7.07 h 5.66 l 5.81,7.07 h 6.06 z"
   id="path18"
   inkscape:connector-curvature="0"
   style="fill:#4c267f" />
	</g>
	<g
   id="g24">
		<polygon
   class="st0"
   points="232.79,423 238.57,423 240.37,419.36 242.23,415.62 245.75,408.55 249.24,415.62 251.07,419.36 252.87,423 258.65,423 248.61,403.81 242.83,403.81 "
   id="polygon22"
   style="fill:#4c267f" />
	</g>
</g>
<g
   id="g66"
   transform="translate(-166.67,-403.45)">
	<path
   class="st1"
   d="m 219.57,434.35 c 0,0.54 -0.06,1.02 -0.18,1.44 -0.12,0.42 -0.29,0.79 -0.5,1.1 -0.22,0.31 -0.47,0.58 -0.78,0.79 -0.3,0.22 -0.64,0.39 -1.01,0.52 -0.37,0.13 -0.77,0.23 -1.19,0.29 -0.43,0.06 -0.87,0.09 -1.33,0.09 h -5.36 v -8.45 h 5.35 c 0.46,0 0.91,0.03 1.33,0.09 0.43,0.06 0.83,0.16 1.2,0.29 0.37,0.13 0.71,0.3 1.01,0.52 0.3,0.22 0.56,0.48 0.78,0.79 0.22,0.31 0.38,0.68 0.5,1.1 0.13,0.42 0.18,0.89 0.18,1.43 z m -2.3,0 c 0,-0.41 -0.05,-0.76 -0.16,-1.06 -0.1,-0.3 -0.27,-0.55 -0.5,-0.74 -0.23,-0.19 -0.53,-0.34 -0.91,-0.44 -0.37,-0.1 -0.83,-0.14 -1.37,-0.14 h -2.83 v 4.77 h 2.83 c 0.54,0 0.99,-0.05 1.37,-0.14 0.37,-0.1 0.68,-0.24 0.91,-0.44 0.23,-0.2 0.4,-0.45 0.5,-0.75 0.11,-0.3 0.16,-0.65 0.16,-1.06 z"
   id="path28"
   inkscape:connector-curvature="0"
   style="fill:#43444a" />
	<path
   class="st1"
   d="m 222.03,438.58 v -8.45 h 2.28 v 8.45 z"
   id="path30"
   inkscape:connector-curvature="0"
   style="fill:#43444a" />
	<path
   class="st1"
   d="m 236.71,438.16 c -0.69,0.23 -1.39,0.39 -2.08,0.5 -0.69,0.1 -1.4,0.15 -2.12,0.15 -0.92,0 -1.74,-0.1 -2.46,-0.3 -0.72,-0.2 -1.33,-0.49 -1.82,-0.86 -0.49,-0.38 -0.87,-0.84 -1.13,-1.38 -0.26,-0.55 -0.39,-1.16 -0.39,-1.85 0,-0.64 0.13,-1.23 0.39,-1.78 0.26,-0.55 0.63,-1.02 1.11,-1.43 0.48,-0.4 1.05,-0.72 1.73,-0.95 0.68,-0.23 1.43,-0.34 2.26,-0.34 0.77,0 1.47,0.1 2.11,0.31 0.64,0.21 1.18,0.51 1.64,0.92 0.46,0.41 0.81,0.91 1.06,1.5 0.25,0.59 0.38,1.28 0.38,2.05 v 0.57 h -8.33 c 0.07,0.27 0.2,0.51 0.37,0.73 0.17,0.22 0.4,0.41 0.69,0.57 0.29,0.16 0.65,0.28 1.07,0.36 0.42,0.09 0.93,0.13 1.52,0.13 0.42,0 0.83,-0.03 1.23,-0.08 0.4,-0.05 0.78,-0.12 1.13,-0.2 0.35,-0.08 0.66,-0.18 0.94,-0.28 0.28,-0.1 0.51,-0.2 0.68,-0.31 v 1.97 z m -1.58,-4.57 c -0.02,-0.21 -0.08,-0.43 -0.19,-0.65 -0.1,-0.22 -0.27,-0.43 -0.5,-0.61 -0.23,-0.18 -0.52,-0.33 -0.89,-0.45 -0.36,-0.12 -0.82,-0.18 -1.37,-0.18 -0.51,0 -0.96,0.06 -1.33,0.19 -0.37,0.13 -0.69,0.28 -0.94,0.47 -0.25,0.19 -0.45,0.39 -0.59,0.61 -0.14,0.22 -0.23,0.42 -0.27,0.6 h 6.08 z"
   id="path32"
   inkscape:connector-curvature="0"
   style="fill:#43444a" />
	<path
   class="st1"
   d="m 247.25,434.97 c 0,0.35 0.03,0.64 0.1,0.86 0.07,0.22 0.17,0.4 0.32,0.53 0.15,0.13 0.34,0.22 0.58,0.27 0.24,0.05 0.53,0.07 0.87,0.07 h 4.33 v 1.88 h -4.8 c -0.66,0 -1.23,-0.05 -1.69,-0.16 -0.47,-0.11 -0.85,-0.28 -1.14,-0.51 -0.29,-0.23 -0.51,-0.52 -0.64,-0.86 -0.13,-0.35 -0.2,-0.76 -0.2,-1.24 v -5.68 h 2.28 v 4.84 z"
   id="path34"
   inkscape:connector-curvature="0"
   style="fill:#43444a" />
	<path
   class="st1"
   d="m 255.49,438.58 v -8.45 h 2.28 v 8.45 z"
   id="path36"
   inkscape:connector-curvature="0"
   style="fill:#43444a" />
	<path
   class="st1"
   d="m 262.99,434.97 c 0,0.35 0.03,0.64 0.1,0.86 0.07,0.22 0.17,0.4 0.32,0.53 0.15,0.13 0.34,0.22 0.58,0.27 0.24,0.05 0.53,0.07 0.87,0.07 h 4.33 v 1.88 h -4.8 c -0.66,0 -1.23,-0.05 -1.69,-0.16 -0.47,-0.11 -0.85,-0.28 -1.14,-0.51 -0.29,-0.23 -0.51,-0.52 -0.64,-0.86 -0.13,-0.35 -0.2,-0.76 -0.2,-1.24 v -5.68 H 263 v 4.84 z"
   id="path38"
   inkscape:connector-curvature="0"
   style="fill:#43444a" />
	<path
   class="st1"
   d="m 278.7,438.58 v -0.83 c -0.29,0.16 -0.6,0.3 -0.94,0.42 -0.33,0.12 -0.68,0.23 -1.04,0.31 -0.36,0.09 -0.73,0.15 -1.12,0.19 -0.38,0.04 -0.77,0.07 -1.16,0.07 -0.46,0 -0.9,-0.04 -1.32,-0.13 -0.42,-0.09 -0.8,-0.22 -1.13,-0.42 -0.33,-0.2 -0.59,-0.45 -0.79,-0.76 -0.2,-0.31 -0.3,-0.69 -0.3,-1.14 0,-0.57 0.16,-1.04 0.47,-1.42 0.31,-0.38 0.79,-0.69 1.43,-0.93 0.64,-0.24 1.45,-0.43 2.43,-0.56 0.98,-0.13 2.14,-0.23 3.47,-0.31 v -0.18 c 0,-0.14 -0.04,-0.28 -0.11,-0.42 -0.07,-0.14 -0.21,-0.26 -0.4,-0.36 -0.19,-0.1 -0.46,-0.19 -0.8,-0.26 -0.34,-0.07 -0.77,-0.1 -1.29,-0.1 -0.41,0 -0.82,0.02 -1.23,0.06 -0.4,0.04 -0.79,0.1 -1.17,0.17 -0.38,0.07 -0.73,0.16 -1.07,0.26 -0.34,0.1 -0.64,0.2 -0.92,0.31 v -2.03 c 0.29,-0.07 0.61,-0.14 0.97,-0.21 0.36,-0.07 0.73,-0.13 1.11,-0.18 0.39,-0.05 0.77,-0.09 1.17,-0.12 0.39,-0.03 0.77,-0.05 1.13,-0.05 0.71,0 1.36,0.06 1.96,0.18 0.6,0.12 1.11,0.3 1.55,0.54 0.43,0.25 0.77,0.56 1.01,0.94 0.24,0.38 0.37,0.83 0.37,1.35 v 5.6 h -2.28 z m 0,-3.85 c -0.88,0.03 -1.62,0.08 -2.24,0.14 -0.61,0.06 -1.12,0.13 -1.53,0.22 -0.41,0.08 -0.72,0.17 -0.96,0.26 -0.23,0.09 -0.41,0.19 -0.52,0.29 -0.11,0.1 -0.19,0.2 -0.21,0.3 -0.03,0.1 -0.04,0.19 -0.04,0.27 0,0.1 0.03,0.19 0.08,0.29 0.05,0.09 0.15,0.17 0.28,0.24 0.13,0.07 0.31,0.13 0.53,0.17 0.22,0.04 0.5,0.06 0.84,0.06 0.37,0 0.74,-0.03 1.09,-0.09 0.36,-0.06 0.69,-0.14 1.01,-0.24 0.32,-0.1 0.62,-0.22 0.9,-0.36 0.28,-0.14 0.53,-0.28 0.75,-0.44 v -1.11 z"
   id="path40"
   inkscape:connector-curvature="0"
   style="fill:#43444a" />
	<path
   class="st1"
   d="m 296.86,432.51 c -0.16,-0.08 -0.37,-0.17 -0.63,-0.26 -0.26,-0.09 -0.56,-0.19 -0.89,-0.28 -0.33,-0.09 -0.69,-0.16 -1.08,-0.22 -0.39,-0.06 -0.79,-0.09 -1.2,-0.09 -0.33,0 -0.61,0.01 -0.84,0.03 -0.23,0.02 -0.43,0.05 -0.58,0.08 -0.16,0.03 -0.28,0.07 -0.37,0.11 -0.09,0.04 -0.16,0.09 -0.21,0.13 -0.05,0.05 -0.08,0.09 -0.1,0.13 -0.01,0.05 -0.02,0.09 -0.02,0.12 0,0.12 0.06,0.23 0.18,0.32 0.12,0.09 0.29,0.17 0.5,0.25 0.21,0.07 0.46,0.14 0.74,0.2 0.28,0.06 0.58,0.13 0.9,0.2 0.32,0.07 0.65,0.14 0.98,0.22 0.34,0.08 0.67,0.17 0.98,0.28 0.32,0.11 0.62,0.23 0.9,0.37 0.28,0.14 0.53,0.31 0.74,0.5 0.21,0.19 0.38,0.41 0.5,0.65 0.12,0.25 0.18,0.53 0.18,0.84 0,0.41 -0.07,0.75 -0.22,1.05 -0.14,0.29 -0.33,0.54 -0.58,0.74 -0.24,0.2 -0.52,0.36 -0.83,0.48 -0.32,0.12 -0.65,0.21 -0.99,0.28 -0.35,0.07 -0.7,0.11 -1.05,0.13 -0.36,0.02 -0.69,0.03 -1.01,0.03 -0.84,0 -1.61,-0.07 -2.32,-0.21 -0.71,-0.14 -1.34,-0.31 -1.88,-0.51 v -2.02 c 0.56,0.31 1.2,0.56 1.92,0.73 0.72,0.18 1.49,0.26 2.31,0.26 0.48,0 0.88,-0.03 1.18,-0.08 0.31,-0.05 0.54,-0.12 0.72,-0.2 0.18,-0.08 0.29,-0.17 0.35,-0.26 0.06,-0.09 0.09,-0.19 0.09,-0.27 0,-0.14 -0.06,-0.25 -0.18,-0.35 -0.12,-0.1 -0.29,-0.19 -0.5,-0.26 -0.21,-0.08 -0.46,-0.15 -0.74,-0.21 -0.28,-0.06 -0.58,-0.13 -0.9,-0.19 -0.32,-0.06 -0.65,-0.13 -0.98,-0.21 -0.34,-0.07 -0.66,-0.16 -0.98,-0.26 -0.32,-0.1 -0.62,-0.22 -0.9,-0.35 -0.28,-0.13 -0.53,-0.29 -0.74,-0.47 -0.21,-0.18 -0.38,-0.39 -0.5,-0.63 -0.12,-0.24 -0.18,-0.52 -0.18,-0.83 0,-0.37 0.07,-0.7 0.2,-0.97 0.13,-0.27 0.31,-0.5 0.53,-0.69 0.22,-0.19 0.48,-0.35 0.78,-0.46 0.29,-0.12 0.6,-0.21 0.93,-0.28 0.32,-0.07 0.65,-0.11 0.98,-0.13 0.33,-0.02 0.65,-0.04 0.95,-0.04 0.33,0 0.67,0.02 1.01,0.05 0.35,0.03 0.69,0.08 1.02,0.14 0.34,0.06 0.66,0.13 0.97,0.21 0.31,0.08 0.6,0.16 0.87,0.25 v 1.95 z"
   id="path42"
   inkscape:connector-curvature="0"
   style="fill:#43444a" />
	<path
   class="st1"
   d="m 309.51,433.02 c 0,0.42 -0.06,0.81 -0.18,1.16 -0.12,0.35 -0.32,0.66 -0.59,0.92 -0.27,0.26 -0.63,0.46 -1.06,0.6 -0.43,0.14 -0.96,0.22 -1.59,0.22 h -3.79 v 2.67 h -2.28 v -8.45 h 6.07 c 0.62,0 1.15,0.07 1.59,0.21 0.43,0.14 0.79,0.34 1.06,0.6 0.27,0.26 0.47,0.56 0.59,0.91 0.12,0.35 0.18,0.73 0.18,1.16 z m -2.3,0.03 c 0,-0.2 -0.03,-0.37 -0.08,-0.51 -0.06,-0.14 -0.15,-0.26 -0.27,-0.35 -0.13,-0.09 -0.29,-0.16 -0.5,-0.2 -0.2,-0.04 -0.46,-0.06 -0.76,-0.06 h -3.3 v 2.18 h 3.3 c 0.3,0 0.55,-0.02 0.76,-0.05 0.2,-0.03 0.37,-0.09 0.5,-0.18 0.13,-0.08 0.22,-0.19 0.27,-0.33 0.05,-0.13 0.08,-0.3 0.08,-0.5 z"
   id="path44"
   inkscape:connector-curvature="0"
   style="fill:#43444a" />
	<path
   class="st1"
   d="m 322.78,434.36 c 0,0.73 -0.13,1.37 -0.4,1.92 -0.27,0.56 -0.65,1.02 -1.14,1.39 -0.5,0.37 -1.1,0.65 -1.81,0.85 -0.71,0.19 -1.5,0.29 -2.38,0.29 -0.88,0 -1.68,-0.1 -2.39,-0.29 -0.71,-0.19 -1.32,-0.47 -1.82,-0.85 -0.5,-0.37 -0.89,-0.84 -1.16,-1.39 -0.27,-0.56 -0.41,-1.2 -0.41,-1.92 0,-0.73 0.14,-1.37 0.41,-1.92 0.27,-0.56 0.66,-1.02 1.16,-1.39 0.5,-0.37 1.11,-0.65 1.82,-0.84 0.71,-0.19 1.51,-0.29 2.39,-0.29 0.88,0 1.68,0.1 2.38,0.29 0.71,0.19 1.31,0.47 1.81,0.84 0.5,0.37 0.88,0.84 1.14,1.39 0.26,0.56 0.4,1.2 0.4,1.92 z m -2.31,0 c 0,-0.32 -0.05,-0.63 -0.15,-0.94 -0.1,-0.31 -0.28,-0.6 -0.53,-0.85 -0.26,-0.25 -0.61,-0.45 -1.05,-0.61 -0.44,-0.16 -1.01,-0.23 -1.69,-0.23 -0.46,0 -0.86,0.04 -1.21,0.11 -0.35,0.07 -0.65,0.17 -0.9,0.3 -0.25,0.13 -0.47,0.28 -0.64,0.45 -0.17,0.17 -0.31,0.35 -0.41,0.55 -0.1,0.2 -0.17,0.4 -0.22,0.61 -0.04,0.21 -0.06,0.42 -0.06,0.62 0,0.21 0.02,0.42 0.06,0.63 0.04,0.21 0.12,0.42 0.22,0.61 0.1,0.2 0.24,0.38 0.41,0.54 0.17,0.17 0.39,0.32 0.64,0.44 0.25,0.13 0.56,0.22 0.9,0.3 0.35,0.07 0.75,0.11 1.21,0.11 0.68,0 1.25,-0.08 1.69,-0.23 0.44,-0.16 0.79,-0.36 1.05,-0.61 0.26,-0.25 0.43,-0.53 0.53,-0.84 0.1,-0.33 0.15,-0.64 0.15,-0.96 z"
   id="path46"
   inkscape:connector-curvature="0"
   style="fill:#43444a" />
	<path
   class="st1"
   d="m 332.7,431.96 c -0.12,-0.04 -0.25,-0.07 -0.41,-0.1 -0.16,-0.04 -0.33,-0.07 -0.51,-0.09 -0.19,-0.02 -0.38,-0.04 -0.57,-0.04 -0.41,0 -0.79,0.05 -1.15,0.15 -0.35,0.1 -0.69,0.23 -0.99,0.4 -0.31,0.17 -0.59,0.36 -0.86,0.57 -0.26,0.21 -0.51,0.43 -0.73,0.65 v 5.09 h -2.28 v -8.45 h 2.28 v 1.37 c 0.27,-0.2 0.56,-0.4 0.85,-0.59 0.29,-0.19 0.59,-0.36 0.9,-0.51 0.31,-0.15 0.65,-0.27 0.99,-0.35 0.35,-0.09 0.72,-0.13 1.11,-0.13 0.15,0 0.3,0.01 0.45,0.02 0.15,0.01 0.3,0.03 0.45,0.05 0.15,0.02 0.28,0.04 0.41,0.07 0.13,0.03 0.24,0.05 0.33,0.07 v 1.91 c -0.06,-0.03 -0.15,-0.05 -0.27,-0.09 z"
   id="path48"
   inkscape:connector-curvature="0"
   style="fill:#43444a" />
	<path
   class="st1"
   d="m 340.13,431.97 v 6.61 h -2.28 v -6.61 h -3.58 v -1.84 h 9.46 v 1.84 z"
   id="path50"
   inkscape:connector-curvature="0"
   style="fill:#43444a" />
	<path
   class="st1"
   d="m 352.68,438.58 v -0.83 c -0.29,0.16 -0.6,0.3 -0.94,0.42 -0.33,0.12 -0.68,0.23 -1.04,0.31 -0.36,0.09 -0.73,0.15 -1.12,0.19 -0.38,0.04 -0.77,0.07 -1.16,0.07 -0.45,0 -0.89,-0.04 -1.32,-0.13 -0.42,-0.09 -0.8,-0.22 -1.13,-0.42 -0.33,-0.2 -0.59,-0.45 -0.79,-0.76 -0.2,-0.31 -0.3,-0.69 -0.3,-1.14 0,-0.57 0.16,-1.04 0.47,-1.42 0.31,-0.38 0.79,-0.69 1.43,-0.93 0.64,-0.24 1.45,-0.43 2.43,-0.56 0.98,-0.13 2.14,-0.23 3.47,-0.31 v -0.18 c 0,-0.14 -0.04,-0.28 -0.11,-0.42 -0.07,-0.14 -0.21,-0.26 -0.4,-0.36 -0.19,-0.1 -0.46,-0.19 -0.8,-0.26 -0.34,-0.07 -0.77,-0.1 -1.29,-0.1 -0.41,0 -0.82,0.02 -1.23,0.06 -0.4,0.04 -0.79,0.1 -1.17,0.17 -0.38,0.07 -0.73,0.16 -1.07,0.26 -0.34,0.1 -0.64,0.2 -0.92,0.31 v -2.03 c 0.29,-0.07 0.61,-0.14 0.97,-0.21 0.36,-0.07 0.73,-0.13 1.11,-0.18 0.39,-0.05 0.78,-0.09 1.17,-0.12 0.39,-0.03 0.77,-0.05 1.13,-0.05 0.71,0 1.36,0.06 1.96,0.18 0.6,0.12 1.11,0.3 1.55,0.54 0.43,0.25 0.77,0.56 1.02,0.94 0.24,0.38 0.37,0.83 0.37,1.35 v 5.6 h -2.29 z m 0,-3.85 c -0.88,0.03 -1.62,0.08 -2.24,0.14 -0.61,0.06 -1.12,0.13 -1.53,0.22 -0.41,0.08 -0.72,0.17 -0.96,0.26 -0.23,0.09 -0.4,0.19 -0.52,0.29 -0.11,0.1 -0.19,0.2 -0.21,0.3 -0.03,0.1 -0.04,0.19 -0.04,0.27 0,0.1 0.03,0.19 0.08,0.29 0.05,0.09 0.15,0.17 0.28,0.24 0.13,0.07 0.31,0.13 0.53,0.17 0.22,0.04 0.5,0.06 0.84,0.06 0.37,0 0.74,-0.03 1.09,-0.09 0.36,-0.06 0.7,-0.14 1.02,-0.24 0.32,-0.1 0.62,-0.22 0.9,-0.36 0.28,-0.14 0.53,-0.28 0.75,-0.44 v -1.11 z"
   id="path52"
   inkscape:connector-curvature="0"
   style="fill:#43444a" />
	<path
   class="st1"
   d="m 363.3,429.92 c 0.83,0 1.6,0.07 2.31,0.21 0.71,0.14 1.36,0.32 1.96,0.54 v 2.07 c -0.23,-0.13 -0.5,-0.26 -0.79,-0.38 -0.29,-0.12 -0.61,-0.23 -0.96,-0.33 -0.34,-0.09 -0.71,-0.17 -1.11,-0.23 -0.39,-0.06 -0.81,-0.09 -1.24,-0.09 -0.54,0 -1.01,0.04 -1.41,0.12 -0.4,0.08 -0.75,0.18 -1.03,0.31 -0.29,0.13 -0.52,0.28 -0.71,0.46 -0.18,0.17 -0.33,0.36 -0.44,0.56 -0.11,0.2 -0.18,0.4 -0.22,0.6 -0.04,0.21 -0.06,0.4 -0.06,0.6 0,0.17 0.02,0.35 0.05,0.55 0.03,0.2 0.1,0.39 0.2,0.59 0.1,0.2 0.23,0.39 0.4,0.57 0.17,0.18 0.4,0.34 0.67,0.48 0.28,0.14 0.61,0.25 1,0.33 0.39,0.08 0.85,0.13 1.39,0.13 0.27,0 0.51,-0.01 0.71,-0.02 0.2,-0.02 0.38,-0.04 0.55,-0.07 0.17,-0.03 0.32,-0.06 0.47,-0.1 0.15,-0.04 0.3,-0.08 0.45,-0.13 v -1.02 h -2.56 v -1.85 h 4.84 v 4.32 c -0.3,0.1 -0.64,0.2 -1.02,0.28 -0.37,0.08 -0.76,0.16 -1.16,0.22 -0.4,0.06 -0.8,0.11 -1.2,0.14 -0.4,0.03 -0.78,0.05 -1.14,0.05 -0.55,0 -1.08,-0.04 -1.59,-0.11 -0.51,-0.07 -0.98,-0.19 -1.42,-0.34 -0.44,-0.15 -0.84,-0.35 -1.21,-0.59 -0.36,-0.24 -0.67,-0.52 -0.93,-0.85 -0.26,-0.33 -0.45,-0.7 -0.6,-1.13 -0.14,-0.42 -0.21,-0.9 -0.21,-1.43 0,-0.52 0.07,-1 0.22,-1.43 0.15,-0.43 0.35,-0.8 0.62,-1.13 0.26,-0.33 0.58,-0.61 0.95,-0.85 0.37,-0.24 0.78,-0.43 1.22,-0.59 0.45,-0.15 0.92,-0.27 1.43,-0.34 0.51,-0.09 1.03,-0.12 1.57,-0.12 z"
   id="path54"
   inkscape:connector-curvature="0"
   style="fill:#43444a" />
	<path
   class="st1"
   d="m 380,438.16 c -0.69,0.23 -1.38,0.39 -2.07,0.5 -0.69,0.1 -1.4,0.15 -2.12,0.15 -0.92,0 -1.74,-0.1 -2.46,-0.3 -0.72,-0.2 -1.33,-0.49 -1.82,-0.86 -0.49,-0.38 -0.87,-0.84 -1.12,-1.38 -0.26,-0.55 -0.39,-1.16 -0.39,-1.85 0,-0.64 0.13,-1.23 0.39,-1.78 0.26,-0.55 0.63,-1.02 1.11,-1.43 0.48,-0.4 1.05,-0.72 1.73,-0.95 0.68,-0.23 1.43,-0.34 2.26,-0.34 0.77,0 1.47,0.1 2.11,0.31 0.64,0.21 1.18,0.51 1.64,0.92 0.46,0.41 0.81,0.91 1.06,1.5 0.25,0.59 0.38,1.28 0.38,2.05 v 0.57 h -8.33 c 0.07,0.27 0.2,0.51 0.37,0.73 0.17,0.22 0.4,0.41 0.69,0.57 0.29,0.16 0.65,0.28 1.07,0.36 0.42,0.09 0.93,0.13 1.52,0.13 0.42,0 0.83,-0.03 1.23,-0.08 0.4,-0.05 0.78,-0.12 1.13,-0.2 0.35,-0.08 0.66,-0.18 0.94,-0.28 0.28,-0.1 0.51,-0.2 0.68,-0.31 z m -1.58,-4.57 c -0.02,-0.21 -0.08,-0.43 -0.19,-0.65 -0.1,-0.22 -0.27,-0.43 -0.49,-0.61 -0.23,-0.18 -0.52,-0.33 -0.89,-0.45 -0.36,-0.12 -0.82,-0.18 -1.36,-0.18 -0.51,0 -0.96,0.06 -1.33,0.19 -0.37,0.13 -0.69,0.28 -0.94,0.47 -0.25,0.19 -0.45,0.39 -0.59,0.61 -0.14,0.22 -0.23,0.42 -0.27,0.6 h 6.06 z"
   id="path56"
   inkscape:connector-curvature="0"
   style="fill:#43444a" />
	<path
   class="st1"
   d="m 391.18,438.58 v -4.73 c 0,-0.32 -0.03,-0.6 -0.08,-0.86 -0.05,-0.26 -0.15,-0.48 -0.3,-0.66 -0.15,-0.18 -0.35,-0.32 -0.61,-0.42 -0.26,-0.1 -0.6,-0.15 -1.01,-0.15 -0.31,0 -0.64,0.04 -0.98,0.13 -0.34,0.08 -0.68,0.2 -1.02,0.34 -0.34,0.14 -0.66,0.3 -0.96,0.49 -0.31,0.18 -0.58,0.38 -0.82,0.58 v 5.3 h -2.28 v -8.45 h 2.28 v 1.16 c 0.29,-0.16 0.59,-0.33 0.92,-0.49 0.32,-0.16 0.67,-0.31 1.03,-0.44 0.36,-0.13 0.75,-0.24 1.16,-0.32 0.41,-0.08 0.84,-0.12 1.3,-0.12 0.57,0 1.08,0.07 1.53,0.21 0.45,0.14 0.83,0.33 1.14,0.58 0.31,0.25 0.55,0.56 0.72,0.92 0.17,0.36 0.25,0.76 0.25,1.2 v 5.76 h -2.27 z"
   id="path58"
   inkscape:connector-curvature="0"
   style="fill:#43444a" />
	<path
   class="st1"
   d="m 401.16,431.97 v 6.61 h -2.28 v -6.61 h -3.58 v -1.84 h 9.46 v 1.84 z"
   id="path60"
   inkscape:connector-curvature="0"
   style="fill:#43444a" />
	<path
   class="st1"
   d="m 408.9,430.13 v 4.76 c 0,0.32 0.03,0.6 0.08,0.86 0.05,0.26 0.15,0.48 0.3,0.66 0.14,0.18 0.34,0.32 0.6,0.42 0.26,0.1 0.59,0.15 1.01,0.15 0.31,0 0.64,-0.04 0.98,-0.13 0.34,-0.09 0.68,-0.2 1.02,-0.34 0.34,-0.14 0.66,-0.31 0.96,-0.5 0.31,-0.19 0.58,-0.38 0.82,-0.58 v -5.3 h 2.28 v 8.45 h -2.28 v -1.16 c -0.29,0.16 -0.59,0.33 -0.92,0.5 -0.32,0.17 -0.67,0.32 -1.03,0.45 -0.37,0.13 -0.75,0.24 -1.16,0.33 -0.41,0.08 -0.84,0.13 -1.3,0.13 -0.57,0 -1.08,-0.07 -1.53,-0.21 -0.45,-0.14 -0.83,-0.33 -1.14,-0.58 -0.31,-0.25 -0.55,-0.56 -0.72,-0.92 -0.17,-0.36 -0.25,-0.76 -0.25,-1.2 v -5.78 h 2.28 z"
   id="path62"
   inkscape:connector-curvature="0"
   style="fill:#43444a" />
	<path
   class="st1"
   d="m 427.4,431.96 c -0.12,-0.04 -0.25,-0.07 -0.41,-0.1 -0.16,-0.04 -0.33,-0.07 -0.51,-0.09 -0.19,-0.02 -0.38,-0.04 -0.57,-0.04 -0.41,0 -0.79,0.05 -1.15,0.15 -0.35,0.1 -0.69,0.23 -0.99,0.4 -0.31,0.17 -0.59,0.36 -0.86,0.57 -0.26,0.21 -0.51,0.43 -0.73,0.65 v 5.09 h -2.28 v -8.45 h 2.28 v 1.37 c 0.27,-0.2 0.56,-0.4 0.85,-0.59 0.29,-0.19 0.59,-0.36 0.9,-0.51 0.31,-0.15 0.65,-0.27 0.99,-0.35 0.35,-0.09 0.72,-0.13 1.11,-0.13 0.15,0 0.3,0.01 0.45,0.02 0.15,0.01 0.3,0.03 0.45,0.05 0.15,0.02 0.28,0.04 0.41,0.07 0.13,0.02 0.24,0.05 0.33,0.07 v 1.91 c -0.06,-0.03 -0.15,-0.05 -0.27,-0.09 z"
   id="path64"
   inkscape:connector-curvature="0"
   style="fill:#43444a" />
</g>
<g
   id="g81"
   transform="translate(-166.67,-403.45)">
	<radialGradient
   id="SVGID_1_"
   cx="166.5739"
   cy="399.76791"
   r="53.534801"
   gradientUnits="userSpaceOnUse">
		<stop
   offset="0.083"
   style="stop-color:#FDD84F"
   id="stop68" />
		<stop
   offset="0.1343"
   style="stop-color:#F2CD44"
   id="stop70" />
		<stop
   offset="0.3044"
   style="stop-color:#D3AE25"
   id="stop72" />
		<stop
   offset="0.6118"
   style="stop-color:#FFEB77"
   id="stop74" />
		<stop
   offset="0.8128"
   style="stop-color:#BC910B"
   id="stop76" />
	</radialGradient>
	<path
   class="st2"
   d="m 184.35,403.46 c -9.77,0 -17.68,7.92 -17.68,17.68 0,9.77 7.92,17.68 17.68,17.68 9.76,0 17.68,-7.92 17.68,-17.68 0,-9.77 -7.92,-17.68 -17.68,-17.68 z m 5.68,27.98 -6.24,-7.59 h -6.08 v 7.59 h -5.57 v -11.9 h 5.57 7.62 c 0.65,0 1.19,-0.04 1.63,-0.12 0.43,-0.08 0.78,-0.21 1.04,-0.38 0.26,-0.18 0.44,-0.4 0.55,-0.68 0.1,-0.28 0.16,-0.62 0.16,-1.02 0,-0.4 -0.05,-0.74 -0.16,-1.02 -0.11,-0.28 -0.29,-0.51 -0.55,-0.68 -0.26,-0.17 -0.61,-0.3 -1.04,-0.38 -0.44,-0.08 -0.98,-0.12 -1.63,-0.12 h -7.62 -5.57 v -4.3 h 13.95 c 1.5,0 2.77,0.16 3.82,0.46 1.04,0.31 1.89,0.75 2.55,1.32 0.66,0.57 1.13,1.26 1.43,2.06 0.29,0.81 0.44,1.7 0.44,2.69 0,0.87 -0.12,1.63 -0.37,2.28 -0.25,0.65 -0.58,1.21 -0.99,1.67 -0.42,0.46 -0.9,0.86 -1.45,1.18 -0.55,0.32 -1.13,0.58 -1.74,0.8 l 6.75,8.15 h -6.5 z"
   id="path79"
   inkscape:connector-curvature="0"
   style="fill:url(#SVGID_1_)" />
</g>
</svg>